<mxfile host="app.diagrams.net" modified="2022-02-13T20:17:18.040Z" agent="5.0 (Macintosh; Intel Mac OS X 10_15_6) AppleWebKit/537.36 (KHTML, like Gecko) Chrome/98.0.4758.80 Safari/537.36" etag="zZMpbMS6MgdeCqy_BzMS" version="16.5.6" type="github">
  <diagram id="S-Ohv1NZQV-sg4bJYoe6" name="Page-1">
    <mxGraphModel dx="1527" dy="914" grid="1" gridSize="10" guides="1" tooltips="1" connect="1" arrows="1" fold="1" page="1" pageScale="1" pageWidth="1654" pageHeight="2336" math="0" shadow="0">
      <root>
        <mxCell id="0" />
        <mxCell id="1" parent="0" />
        <mxCell id="IKRgI5MwyABW7BMP_2ts-50" value="" style="rounded=0;whiteSpace=wrap;html=1;dashed=1;sketch=1;fillColor=#f5f5f5;fontColor=#333333;strokeColor=#666666;" vertex="1" parent="1">
          <mxGeometry x="80" y="80" width="920" height="370" as="geometry" />
        </mxCell>
        <mxCell id="IKRgI5MwyABW7BMP_2ts-51" value="&lt;span style=&quot;font-size: 16px&quot;&gt;应用&lt;/span&gt;" style="text;strokeColor=none;fillColor=none;html=1;fontSize=24;fontStyle=1;verticalAlign=middle;align=left;rounded=0;sketch=0;fontColor=#46495D;" vertex="1" parent="1">
          <mxGeometry x="120" y="90" width="100" height="40" as="geometry" />
        </mxCell>
        <mxCell id="IKRgI5MwyABW7BMP_2ts-52" value="" style="rounded=0;whiteSpace=wrap;html=1;sketch=1;fillColor=#f5f5f5;fontColor=#333333;strokeColor=#666666;" vertex="1" parent="1">
          <mxGeometry x="120" y="150" width="600" height="70" as="geometry" />
        </mxCell>
        <mxCell id="IKRgI5MwyABW7BMP_2ts-54" value="&lt;span style=&quot;font-weight: normal&quot;&gt;&lt;font style=&quot;font-size: 16px&quot;&gt;主应用&lt;/font&gt;&lt;/span&gt;" style="text;strokeColor=none;fillColor=none;html=1;fontSize=24;fontStyle=1;verticalAlign=middle;align=left;rounded=0;sketch=0;fontColor=#46495D;" vertex="1" parent="1">
          <mxGeometry x="150" y="165" width="70" height="40" as="geometry" />
        </mxCell>
        <mxCell id="IKRgI5MwyABW7BMP_2ts-57" value="登录模块" style="rounded=0;whiteSpace=wrap;html=1;sketch=1;fillColor=#f5f5f5;fontColor=#333333;strokeColor=#666666;" vertex="1" parent="1">
          <mxGeometry x="230" y="165" width="90" height="40" as="geometry" />
        </mxCell>
        <mxCell id="IKRgI5MwyABW7BMP_2ts-58" value="权限模块" style="rounded=0;whiteSpace=wrap;html=1;sketch=1;fillColor=#f5f5f5;fontColor=#333333;strokeColor=#666666;" vertex="1" parent="1">
          <mxGeometry x="350" y="165" width="90" height="40" as="geometry" />
        </mxCell>
        <mxCell id="IKRgI5MwyABW7BMP_2ts-129" style="edgeStyle=orthogonalEdgeStyle;curved=0;rounded=1;sketch=0;orthogonalLoop=1;jettySize=auto;html=1;fontSize=16;fontColor=#46495D;strokeColor=#788AA3;fillColor=#B2C9AB;entryX=1;entryY=0.5;entryDx=0;entryDy=0;" edge="1" parent="1" source="IKRgI5MwyABW7BMP_2ts-59" target="IKRgI5MwyABW7BMP_2ts-52">
          <mxGeometry relative="1" as="geometry">
            <Array as="points">
              <mxPoint x="750" y="185" />
              <mxPoint x="750" y="185" />
            </Array>
          </mxGeometry>
        </mxCell>
        <mxCell id="IKRgI5MwyABW7BMP_2ts-59" value="" style="rounded=0;whiteSpace=wrap;html=1;sketch=1;fillColor=#f5f5f5;fontColor=#333333;strokeColor=#666666;" vertex="1" parent="1">
          <mxGeometry x="760" y="150" width="200" height="270" as="geometry" />
        </mxCell>
        <mxCell id="IKRgI5MwyABW7BMP_2ts-60" value="&lt;font style=&quot;font-size: 16px&quot;&gt;qiankun&lt;/font&gt;" style="text;strokeColor=none;fillColor=none;html=1;fontSize=24;fontStyle=1;verticalAlign=middle;align=left;rounded=0;sketch=0;fontColor=#46495D;" vertex="1" parent="1">
          <mxGeometry x="800" y="160" width="100" height="40" as="geometry" />
        </mxCell>
        <mxCell id="IKRgI5MwyABW7BMP_2ts-61" value="共享中心" style="rounded=0;whiteSpace=wrap;html=1;sketch=1;fillColor=#f5f5f5;fontColor=#333333;strokeColor=#666666;" vertex="1" parent="1">
          <mxGeometry x="800" y="220" width="120" height="40" as="geometry" />
        </mxCell>
        <mxCell id="IKRgI5MwyABW7BMP_2ts-65" value="通信中心" style="rounded=0;whiteSpace=wrap;html=1;sketch=1;fillColor=#f5f5f5;fontColor=#333333;strokeColor=#666666;" vertex="1" parent="1">
          <mxGeometry x="800" y="340" width="120" height="40" as="geometry" />
        </mxCell>
        <mxCell id="IKRgI5MwyABW7BMP_2ts-66" value="消息中心" style="rounded=0;whiteSpace=wrap;html=1;sketch=1;fillColor=#f5f5f5;fontColor=#333333;strokeColor=#666666;" vertex="1" parent="1">
          <mxGeometry x="800" y="280" width="120" height="40" as="geometry" />
        </mxCell>
        <mxCell id="IKRgI5MwyABW7BMP_2ts-67" value="业务模块" style="rounded=0;whiteSpace=wrap;html=1;sketch=1;fillColor=#f5f5f5;fontColor=#333333;strokeColor=#666666;" vertex="1" parent="1">
          <mxGeometry x="470" y="165" width="90" height="40" as="geometry" />
        </mxCell>
        <mxCell id="IKRgI5MwyABW7BMP_2ts-127" style="edgeStyle=orthogonalEdgeStyle;curved=0;rounded=1;sketch=0;orthogonalLoop=1;jettySize=auto;html=1;entryX=0;entryY=0.5;entryDx=0;entryDy=0;fontSize=16;fontColor=#46495D;strokeColor=#788AA3;fillColor=#B2C9AB;" edge="1" parent="1" source="IKRgI5MwyABW7BMP_2ts-68" target="IKRgI5MwyABW7BMP_2ts-59">
          <mxGeometry relative="1" as="geometry" />
        </mxCell>
        <mxCell id="IKRgI5MwyABW7BMP_2ts-68" value="" style="rounded=0;whiteSpace=wrap;html=1;sketch=1;fillColor=#f5f5f5;fontColor=#333333;strokeColor=#666666;" vertex="1" parent="1">
          <mxGeometry x="120" y="250" width="600" height="70" as="geometry" />
        </mxCell>
        <mxCell id="IKRgI5MwyABW7BMP_2ts-69" value="&lt;span style=&quot;font-weight: normal&quot;&gt;&lt;font style=&quot;font-size: 16px&quot;&gt;子应用&lt;/font&gt;&lt;/span&gt;" style="text;strokeColor=none;fillColor=none;html=1;fontSize=24;fontStyle=1;verticalAlign=middle;align=left;rounded=0;sketch=0;fontColor=#46495D;" vertex="1" parent="1">
          <mxGeometry x="150" y="265" width="70" height="40" as="geometry" />
        </mxCell>
        <mxCell id="IKRgI5MwyABW7BMP_2ts-70" value="灯塔服务" style="rounded=0;whiteSpace=wrap;html=1;sketch=1;fillColor=#f5f5f5;fontColor=#333333;strokeColor=#666666;" vertex="1" parent="1">
          <mxGeometry x="230" y="265" width="90" height="40" as="geometry" />
        </mxCell>
        <mxCell id="IKRgI5MwyABW7BMP_2ts-72" value="..." style="rounded=0;whiteSpace=wrap;html=1;sketch=1;fillColor=#f5f5f5;fontColor=#333333;strokeColor=#666666;" vertex="1" parent="1">
          <mxGeometry x="350" y="265" width="90" height="40" as="geometry" />
        </mxCell>
        <mxCell id="IKRgI5MwyABW7BMP_2ts-73" value="" style="rounded=0;whiteSpace=wrap;html=1;dashed=1;sketch=1;fillColor=#f5f5f5;fontColor=#333333;strokeColor=#666666;" vertex="1" parent="1">
          <mxGeometry x="80" y="480" width="920" height="420" as="geometry" />
        </mxCell>
        <mxCell id="IKRgI5MwyABW7BMP_2ts-74" value="&lt;font style=&quot;font-size: 16px&quot;&gt;页面容器&lt;/font&gt;" style="text;strokeColor=none;fillColor=none;html=1;fontSize=24;fontStyle=1;verticalAlign=middle;align=left;rounded=0;sketch=0;fontColor=#46495D;" vertex="1" parent="1">
          <mxGeometry x="120" y="490" width="100" height="40" as="geometry" />
        </mxCell>
        <mxCell id="IKRgI5MwyABW7BMP_2ts-75" value="" style="rounded=0;whiteSpace=wrap;html=1;sketch=1;fillColor=#f5f5f5;fontColor=#333333;strokeColor=#666666;fontStyle=1" vertex="1" parent="1">
          <mxGeometry x="120" y="550" width="160" height="310" as="geometry" />
        </mxCell>
        <mxCell id="IKRgI5MwyABW7BMP_2ts-76" value="&lt;span style=&quot;&quot;&gt;&lt;font style=&quot;font-size: 16px&quot;&gt;Antd&lt;/font&gt;&lt;/span&gt;" style="text;strokeColor=none;fillColor=none;html=1;fontSize=24;fontStyle=1;verticalAlign=middle;align=left;rounded=0;sketch=0;fontColor=#46495D;" vertex="1" parent="1">
          <mxGeometry x="150" y="565" width="70" height="40" as="geometry" />
        </mxCell>
        <mxCell id="IKRgI5MwyABW7BMP_2ts-77" value="公共组件" style="rounded=0;whiteSpace=wrap;html=1;sketch=1;fillColor=#f5f5f5;fontColor=#333333;strokeColor=#666666;fontStyle=1" vertex="1" parent="1">
          <mxGeometry x="150" y="610" width="90" height="40" as="geometry" />
        </mxCell>
        <mxCell id="IKRgI5MwyABW7BMP_2ts-78" value="页面组件" style="rounded=0;whiteSpace=wrap;html=1;sketch=1;fillColor=#f5f5f5;fontColor=#333333;strokeColor=#666666;fontStyle=1" vertex="1" parent="1">
          <mxGeometry x="150" y="670" width="90" height="40" as="geometry" />
        </mxCell>
        <mxCell id="IKRgI5MwyABW7BMP_2ts-79" value="业务组件" style="rounded=0;whiteSpace=wrap;html=1;sketch=1;fillColor=#f5f5f5;fontColor=#333333;strokeColor=#666666;fontStyle=1" vertex="1" parent="1">
          <mxGeometry x="150" y="730" width="90" height="40" as="geometry" />
        </mxCell>
        <mxCell id="IKRgI5MwyABW7BMP_2ts-96" value="..." style="rounded=0;whiteSpace=wrap;html=1;sketch=1;fillColor=#f5f5f5;fontColor=#333333;strokeColor=#666666;" vertex="1" parent="1">
          <mxGeometry x="590" y="165" width="90" height="40" as="geometry" />
        </mxCell>
        <mxCell id="IKRgI5MwyABW7BMP_2ts-103" value="..." style="rounded=0;whiteSpace=wrap;html=1;sketch=1;fillColor=#f5f5f5;fontColor=#333333;strokeColor=#666666;fontStyle=1" vertex="1" parent="1">
          <mxGeometry x="150" y="790" width="90" height="40" as="geometry" />
        </mxCell>
        <mxCell id="IKRgI5MwyABW7BMP_2ts-104" value="" style="rounded=0;whiteSpace=wrap;html=1;sketch=1;fillColor=#f5f5f5;fontColor=#333333;strokeColor=#666666;" vertex="1" parent="1">
          <mxGeometry x="320" y="550" width="160" height="310" as="geometry" />
        </mxCell>
        <mxCell id="IKRgI5MwyABW7BMP_2ts-105" value="&lt;font style=&quot;font-size: 16px&quot;&gt;router&lt;/font&gt;" style="text;strokeColor=none;fillColor=none;html=1;fontSize=24;fontStyle=1;verticalAlign=middle;align=left;rounded=0;sketch=0;fontColor=#46495D;" vertex="1" parent="1">
          <mxGeometry x="350" y="565" width="70" height="40" as="geometry" />
        </mxCell>
        <mxCell id="IKRgI5MwyABW7BMP_2ts-106" value="路由鉴权" style="rounded=0;whiteSpace=wrap;html=1;sketch=1;fillColor=#f5f5f5;fontColor=#333333;strokeColor=#666666;" vertex="1" parent="1">
          <mxGeometry x="350" y="610" width="90" height="40" as="geometry" />
        </mxCell>
        <mxCell id="IKRgI5MwyABW7BMP_2ts-107" value="子应用加载" style="rounded=0;whiteSpace=wrap;html=1;sketch=1;fillColor=#f5f5f5;fontColor=#333333;strokeColor=#666666;" vertex="1" parent="1">
          <mxGeometry x="350" y="670" width="90" height="40" as="geometry" />
        </mxCell>
        <mxCell id="IKRgI5MwyABW7BMP_2ts-108" value="接口转发" style="rounded=0;whiteSpace=wrap;html=1;sketch=1;fillColor=#f5f5f5;fontColor=#333333;strokeColor=#666666;" vertex="1" parent="1">
          <mxGeometry x="350" y="730" width="90" height="40" as="geometry" />
        </mxCell>
        <mxCell id="IKRgI5MwyABW7BMP_2ts-109" value="..." style="rounded=0;whiteSpace=wrap;html=1;sketch=1;fillColor=#f5f5f5;fontColor=#333333;strokeColor=#666666;" vertex="1" parent="1">
          <mxGeometry x="350" y="790" width="90" height="40" as="geometry" />
        </mxCell>
        <mxCell id="IKRgI5MwyABW7BMP_2ts-110" value="" style="rounded=0;whiteSpace=wrap;html=1;sketch=1;fillColor=#f5f5f5;fontColor=#333333;strokeColor=#666666;" vertex="1" parent="1">
          <mxGeometry x="520" y="550" width="160" height="310" as="geometry" />
        </mxCell>
        <mxCell id="IKRgI5MwyABW7BMP_2ts-111" value="&lt;font style=&quot;font-size: 16px&quot;&gt;状态管理&lt;/font&gt;" style="text;strokeColor=none;fillColor=none;html=1;fontSize=24;fontStyle=1;verticalAlign=middle;align=left;rounded=0;sketch=0;fontColor=#46495D;" vertex="1" parent="1">
          <mxGeometry x="550" y="565" width="70" height="40" as="geometry" />
        </mxCell>
        <mxCell id="IKRgI5MwyABW7BMP_2ts-112" value="全局状态" style="rounded=0;whiteSpace=wrap;html=1;sketch=1;fillColor=#f5f5f5;fontColor=#333333;strokeColor=#666666;" vertex="1" parent="1">
          <mxGeometry x="550" y="610" width="90" height="40" as="geometry" />
        </mxCell>
        <mxCell id="IKRgI5MwyABW7BMP_2ts-113" value="业务鉴权" style="rounded=0;whiteSpace=wrap;html=1;sketch=1;fillColor=#f5f5f5;fontColor=#333333;strokeColor=#666666;" vertex="1" parent="1">
          <mxGeometry x="550" y="670" width="90" height="40" as="geometry" />
        </mxCell>
        <mxCell id="IKRgI5MwyABW7BMP_2ts-114" value="父子应用通信" style="rounded=0;whiteSpace=wrap;html=1;sketch=1;fillColor=#f5f5f5;fontColor=#333333;strokeColor=#666666;" vertex="1" parent="1">
          <mxGeometry x="550" y="730" width="90" height="40" as="geometry" />
        </mxCell>
        <mxCell id="IKRgI5MwyABW7BMP_2ts-115" value="..." style="rounded=0;whiteSpace=wrap;html=1;sketch=1;fillColor=#f5f5f5;fontColor=#333333;strokeColor=#666666;" vertex="1" parent="1">
          <mxGeometry x="550" y="790" width="90" height="40" as="geometry" />
        </mxCell>
        <mxCell id="IKRgI5MwyABW7BMP_2ts-121" value="" style="rounded=0;whiteSpace=wrap;html=1;sketch=1;fillColor=#f5f5f5;fontColor=#333333;strokeColor=#666666;" vertex="1" parent="1">
          <mxGeometry x="120" y="350" width="600" height="70" as="geometry" />
        </mxCell>
        <mxCell id="IKRgI5MwyABW7BMP_2ts-122" value="&lt;span style=&quot;font-weight: normal&quot;&gt;&lt;font style=&quot;font-size: 16px&quot;&gt;三方服务&lt;/font&gt;&lt;/span&gt;" style="text;strokeColor=none;fillColor=none;html=1;fontSize=24;fontStyle=1;verticalAlign=middle;align=left;rounded=0;sketch=0;fontColor=#46495D;" vertex="1" parent="1">
          <mxGeometry x="150" y="365" width="70" height="40" as="geometry" />
        </mxCell>
        <mxCell id="IKRgI5MwyABW7BMP_2ts-123" value="智齿" style="rounded=0;whiteSpace=wrap;html=1;sketch=1;fillColor=#f5f5f5;fontColor=#333333;strokeColor=#666666;" vertex="1" parent="1">
          <mxGeometry x="230" y="365" width="90" height="40" as="geometry" />
        </mxCell>
        <mxCell id="IKRgI5MwyABW7BMP_2ts-124" value="金牌话术" style="rounded=0;whiteSpace=wrap;html=1;sketch=1;fillColor=#f5f5f5;fontColor=#333333;strokeColor=#666666;" vertex="1" parent="1">
          <mxGeometry x="350" y="365" width="90" height="40" as="geometry" />
        </mxCell>
        <mxCell id="IKRgI5MwyABW7BMP_2ts-125" value="同屏助手" style="rounded=0;whiteSpace=wrap;html=1;sketch=1;fillColor=#f5f5f5;fontColor=#333333;strokeColor=#666666;" vertex="1" parent="1">
          <mxGeometry x="470" y="365" width="90" height="40" as="geometry" />
        </mxCell>
        <mxCell id="IKRgI5MwyABW7BMP_2ts-126" value="x-flow" style="rounded=0;whiteSpace=wrap;html=1;sketch=1;fillColor=#f5f5f5;fontColor=#333333;strokeColor=#666666;" vertex="1" parent="1">
          <mxGeometry x="590" y="365" width="90" height="40" as="geometry" />
        </mxCell>
        <mxCell id="IKRgI5MwyABW7BMP_2ts-130" value="" style="rounded=0;whiteSpace=wrap;html=1;dashed=1;sketch=1;fillColor=#f5f5f5;fontColor=#333333;strokeColor=default;" vertex="1" parent="1">
          <mxGeometry x="1040" y="80" width="240" height="820" as="geometry" />
        </mxCell>
        <mxCell id="IKRgI5MwyABW7BMP_2ts-131" value="&lt;span style=&quot;font-size: 16px&quot;&gt;server&lt;/span&gt;" style="text;strokeColor=none;fillColor=none;html=1;fontSize=24;fontStyle=1;verticalAlign=middle;align=left;rounded=0;sketch=0;fontColor=#46495D;" vertex="1" parent="1">
          <mxGeometry x="1080" y="90" width="100" height="40" as="geometry" />
        </mxCell>
        <mxCell id="IKRgI5MwyABW7BMP_2ts-132" value="" style="rounded=0;whiteSpace=wrap;html=1;sketch=1;fillColor=#f5f5f5;fontColor=#333333;strokeColor=#666666;" vertex="1" parent="1">
          <mxGeometry x="1080" y="145" width="160" height="375" as="geometry" />
        </mxCell>
        <mxCell id="IKRgI5MwyABW7BMP_2ts-133" value="&lt;span style=&quot;font-size: 16px ; font-weight: 400&quot;&gt;node&lt;/span&gt;" style="text;strokeColor=none;fillColor=none;html=1;fontSize=24;fontStyle=1;verticalAlign=middle;align=left;rounded=0;sketch=0;fontColor=#46495D;" vertex="1" parent="1">
          <mxGeometry x="1110" y="160" width="70" height="40" as="geometry" />
        </mxCell>
        <mxCell id="IKRgI5MwyABW7BMP_2ts-134" value="健康检查" style="rounded=0;whiteSpace=wrap;html=1;sketch=1;fillColor=#f5f5f5;fontColor=#333333;strokeColor=#666666;" vertex="1" parent="1">
          <mxGeometry x="1110" y="205" width="90" height="40" as="geometry" />
        </mxCell>
        <mxCell id="IKRgI5MwyABW7BMP_2ts-135" value="API转发处理" style="rounded=0;whiteSpace=wrap;html=1;sketch=1;fillColor=#f5f5f5;fontColor=#333333;strokeColor=#666666;" vertex="1" parent="1">
          <mxGeometry x="1110" y="265" width="90" height="40" as="geometry" />
        </mxCell>
        <mxCell id="IKRgI5MwyABW7BMP_2ts-136" value="安全文件校验" style="rounded=0;whiteSpace=wrap;html=1;sketch=1;fillColor=#f5f5f5;fontColor=#333333;strokeColor=#666666;" vertex="1" parent="1">
          <mxGeometry x="1110" y="325" width="90" height="40" as="geometry" />
        </mxCell>
        <mxCell id="IKRgI5MwyABW7BMP_2ts-137" value="跨域支持" style="rounded=0;whiteSpace=wrap;html=1;sketch=1;fillColor=#f5f5f5;fontColor=#333333;strokeColor=#666666;" vertex="1" parent="1">
          <mxGeometry x="1110" y="385" width="90" height="40" as="geometry" />
        </mxCell>
        <mxCell id="IKRgI5MwyABW7BMP_2ts-138" value="" style="rounded=0;whiteSpace=wrap;html=1;sketch=1;fillColor=#f5f5f5;fontColor=#333333;strokeColor=#666666;" vertex="1" parent="1">
          <mxGeometry x="1080" y="550" width="160" height="310" as="geometry" />
        </mxCell>
        <mxCell id="IKRgI5MwyABW7BMP_2ts-139" value="&lt;span style=&quot;font-size: 16px ; font-weight: 400&quot;&gt;websocket&lt;/span&gt;" style="text;strokeColor=none;fillColor=none;html=1;fontSize=24;fontStyle=1;verticalAlign=middle;align=left;rounded=0;sketch=0;fontColor=#46495D;" vertex="1" parent="1">
          <mxGeometry x="1110" y="560" width="70" height="40" as="geometry" />
        </mxCell>
        <mxCell id="IKRgI5MwyABW7BMP_2ts-140" value="消息通知" style="rounded=0;whiteSpace=wrap;html=1;sketch=1;fillColor=#f5f5f5;fontColor=#333333;strokeColor=#666666;" vertex="1" parent="1">
          <mxGeometry x="1110" y="610" width="90" height="40" as="geometry" />
        </mxCell>
        <mxCell id="IKRgI5MwyABW7BMP_2ts-141" value="呼叫中心" style="rounded=0;whiteSpace=wrap;html=1;sketch=1;fillColor=#f5f5f5;fontColor=#333333;strokeColor=#666666;" vertex="1" parent="1">
          <mxGeometry x="1110" y="670" width="90" height="40" as="geometry" />
        </mxCell>
        <mxCell id="IKRgI5MwyABW7BMP_2ts-142" value="金牌话术" style="rounded=0;whiteSpace=wrap;html=1;sketch=1;fillColor=#f5f5f5;fontColor=#333333;strokeColor=#666666;" vertex="1" parent="1">
          <mxGeometry x="1110" y="730" width="90" height="40" as="geometry" />
        </mxCell>
        <mxCell id="IKRgI5MwyABW7BMP_2ts-143" value="同屏助手" style="rounded=0;whiteSpace=wrap;html=1;sketch=1;fillColor=#f5f5f5;fontColor=#333333;strokeColor=#666666;" vertex="1" parent="1">
          <mxGeometry x="1110" y="790" width="90" height="40" as="geometry" />
        </mxCell>
        <mxCell id="IKRgI5MwyABW7BMP_2ts-144" value="..." style="rounded=0;whiteSpace=wrap;html=1;sketch=1;fillColor=#f5f5f5;fontColor=#333333;strokeColor=#666666;" vertex="1" parent="1">
          <mxGeometry x="1110" y="445" width="90" height="40" as="geometry" />
        </mxCell>
      </root>
    </mxGraphModel>
  </diagram>
</mxfile>
